<svg id="visual" viewBox="0 0 900 300" width="900" height="300" xmlns="http://www.w3.org/2000/svg" xmlns:xlink="http://www.w3.org/1999/xlink" version="1.1"><rect x="0" y="0" width="900" height="300" fill="#001829"></rect><path d="M0 146L8.3 148.5C16.7 151 33.3 156 50 154.7C66.7 153.3 83.3 145.7 100 146.5C116.7 147.3 133.3 156.7 150 167.2C166.7 177.7 183.3 189.3 200 198.7C216.7 208 233.3 215 250 203.2C266.7 191.3 283.3 160.7 300 140C316.7 119.3 333.3 108.7 350 122C366.7 135.3 383.3 172.7 400 179.7C416.7 186.7 433.3 163.3 450 147C466.7 130.7 483.3 121.3 500 120.2C516.7 119 533.3 126 550 132.7C566.7 139.3 583.3 145.7 600 159.7C616.7 173.7 633.3 195.3 650 196.2C666.7 197 683.3 177 700 175.7C716.7 174.3 733.3 191.7 750 183.8C766.7 176 783.3 143 800 141.5C816.7 140 833.3 170 850 168.5C866.7 167 883.3 134 891.7 117.5L900 101L900 301L891.7 301C883.3 301 866.7 301 850 301C833.3 301 816.7 301 800 301C783.3 301 766.7 301 750 301C733.3 301 716.7 301 700 301C683.3 301 666.7 301 650 301C633.3 301 616.7 301 600 301C583.3 301 566.7 301 550 301C533.3 301 516.7 301 500 301C483.3 301 466.7 301 450 301C433.3 301 416.7 301 400 301C383.3 301 366.7 301 350 301C333.3 301 316.7 301 300 301C283.3 301 266.7 301 250 301C233.3 301 216.7 301 200 301C183.3 301 166.7 301 150 301C133.3 301 116.7 301 100 301C83.3 301 66.7 301 50 301C33.3 301 16.7 301 8.3 301L0 301Z" fill="#0F191D" stroke-linecap="round" stroke-linejoin="miter"></path></svg>