<svg id="visual" viewBox="0 0 900 300" width="900" height="300" xmlns="http://www.w3.org/2000/svg" xmlns:xlink="http://www.w3.org/1999/xlink" version="1.1"><rect x="0" y="0" width="900" height="300" fill="#181818"></rect><path d="M0 142L21.5 130C43 118 86 94 128.8 81.3C171.7 68.7 214.3 67.3 257.2 73.3C300 79.3 343 92.7 385.8 98.2C428.7 103.7 471.3 101.3 514.2 102.8C557 104.3 600 109.7 642.8 113.5C685.7 117.3 728.3 119.7 771.2 121.7C814 123.7 857 125.3 878.5 126.2L900 127L900 301L878.5 301C857 301 814 301 771.2 301C728.3 301 685.7 301 642.8 301C600 301 557 301 514.2 301C471.3 301 428.7 301 385.8 301C343 301 300 301 257.2 301C214.3 301 171.7 301 128.8 301C86 301 43 301 21.5 301L0 301Z" fill="#c8ccd1"></path><path d="M0 113L21.5 110.3C43 107.7 86 102.3 128.8 107.8C171.7 113.3 214.3 129.7 257.2 137.5C300 145.3 343 144.7 385.8 141.8C428.7 139 471.3 134 514.2 137.5C557 141 600 153 642.8 148.7C685.7 144.3 728.3 123.7 771.2 116.5C814 109.3 857 115.7 878.5 118.8L900 122L900 301L878.5 301C857 301 814 301 771.2 301C728.3 301 685.7 301 642.8 301C600 301 557 301 514.2 301C471.3 301 428.7 301 385.8 301C343 301 300 301 257.2 301C214.3 301 171.7 301 128.8 301C86 301 43 301 21.5 301L0 301Z" fill="#959aa0"></path><path d="M0 181L21.5 181C43 181 86 181 128.8 180C171.7 179 214.3 177 257.2 174.2C300 171.3 343 167.7 385.8 161.3C428.7 155 471.3 146 514.2 152.2C557 158.3 600 179.7 642.8 190.7C685.7 201.7 728.3 202.3 771.2 203.5C814 204.7 857 206.3 878.5 207.2L900 208L900 301L878.5 301C857 301 814 301 771.2 301C728.3 301 685.7 301 642.8 301C600 301 557 301 514.2 301C471.3 301 428.7 301 385.8 301C343 301 300 301 257.2 301C214.3 301 171.7 301 128.8 301C86 301 43 301 21.5 301L0 301Z" fill="#646b71"></path><path d="M0 208L21.5 205.8C43 203.7 86 199.3 128.8 196.3C171.7 193.3 214.3 191.7 257.2 195.5C300 199.3 343 208.7 385.8 212.7C428.7 216.7 471.3 215.3 514.2 218.7C557 222 600 230 642.8 228.2C685.7 226.3 728.3 214.7 771.2 213C814 211.3 857 219.7 878.5 223.8L900 228L900 301L878.5 301C857 301 814 301 771.2 301C728.3 301 685.7 301 642.8 301C600 301 557 301 514.2 301C471.3 301 428.7 301 385.8 301C343 301 300 301 257.2 301C214.3 301 171.7 301 128.8 301C86 301 43 301 21.5 301L0 301Z" fill="#374045"></path><path d="M0 251L21.5 252.5C43 254 86 257 128.8 254.7C171.7 252.3 214.3 244.7 257.2 243C300 241.3 343 245.7 385.8 244.3C428.7 243 471.3 236 514.2 238.7C557 241.3 600 253.7 642.8 256.8C685.7 260 728.3 254 771.2 248.2C814 242.3 857 236.7 878.5 233.8L900 231L900 301L878.5 301C857 301 814 301 771.2 301C728.3 301 685.7 301 642.8 301C600 301 557 301 514.2 301C471.3 301 428.7 301 385.8 301C343 301 300 301 257.2 301C214.3 301 171.7 301 128.8 301C86 301 43 301 21.5 301L0 301Z" fill="#0f191d"></path></svg>